<?xml version="1.0" encoding="UTF-8" standalone="no"?>
<svg
   data-name="Layer 1"
   width="1114"
   height="593.54145"
   viewBox="0 0 1114 593.54145"
   version="1.1"
   id="svg406"
   sodipodi:docname="about_hero.svg"
   inkscape:version="1.1.2 (0a00cf5339, 2022-02-04)"
   xmlns:inkscape="http://www.inkscape.org/namespaces/inkscape"
   xmlns:sodipodi="http://sodipodi.sourceforge.net/DTD/sodipodi-0.dtd"
   xmlns="http://www.w3.org/2000/svg"
   xmlns:svg="http://www.w3.org/2000/svg">
  <defs
     id="defs410">
    <rect
       x="200.16817"
       y="743.52197"
       width="647.51245"
       height="147.70831"
       id="rect6221" />
  </defs>
  <sodipodi:namedview
     id="namedview408"
     pagecolor="#ffffff"
     bordercolor="#666666"
     borderopacity="1.0"
     inkscape:pageshadow="2"
     inkscape:pageopacity="0.0"
     inkscape:pagecheckerboard="0"
     showgrid="false"
     inkscape:zoom="1.2082585"
     inkscape:cx="392.30016"
     inkscape:cy="317.39897"
     inkscape:window-width="1856"
     inkscape:window-height="1016"
     inkscape:window-x="0"
     inkscape:window-y="0"
     inkscape:window-maximized="1"
     inkscape:current-layer="g276"
     inkscape:lockguides="false" />
  <title
     id="title2">Vehicle sale</title>
  <ellipse
     cx="557"
     cy="419.76597"
     rx="557"
     ry="173.77547"
     fill="#6c63ff"
     opacity="0.1"
     id="ellipse4" />
  <g
     opacity="0.8"
     id="g276"
     style="display:inline">
    <path
       d="m 447.792,188.61069 c 9.4427,13.24168 16.687,51.80564 18.70621,63.42625 l 16.87916,-0.34435 c -0.87347,-9.98352 -20.50928,-50.59144 -25.96792,-61.73352 -3.03745,-0.47621 -6.27959,-0.94131 -9.61745,-1.34838 z"
       transform="translate(-43,-153.22928)"
       fill="#65617d"
       id="path6" />
    <rect
       x="235.50336"
       y="181.59265"
       width="10.53355"
       height="7.4776702"
       transform="rotate(-88.91801,141.19484,130.62675)"
       fill="#dce0ed"
       id="rect8" />
    <path
       d="m 237.13142,179.99505 -0.0648,3.42915 a 5.71053,5.71053 0 0 0 1.62072,0.25 l 5.85242,0.0606 0.068,-3.5986 z"
       transform="translate(-43,-153.22928)"
       opacity="0.1"
       id="path10" />
    <path
       d="m 248.2712,153.36412 -7.059,-0.13332 a 8.47282,8.47282 0 0 0 -7.9484,5.13905 c -2.16363,5.0498 -4.06611,13.10879 0.38065,21.26595 a 5.83528,5.83528 0 0 0 5.06083,3.04224 l 9.01053,0.093 z"
       transform="translate(-43,-153.22928)"
       fill="#dce0ed"
       id="path12" />
    <ellipse
       cx="247.9935"
       cy="168.0676"
       rx="14.70609"
       ry="7.56076"
       transform="rotate(-88.91801,148.41821,113.36285)"
       fill="#f0f0f4"
       id="ellipse14" />
    <rect
       x="302.58377"
       y="182.31618"
       width="9.2224598"
       height="7.4776702"
       transform="rotate(-88.91801,207.61969,131.35028)"
       fill="#dce0ed"
       id="rect16" />
    <path
       d="m 303.5439,181.374 -0.0554,2.93072 a 5.71024,5.71024 0 0 0 1.62072,0.25 l 5.85242,0.0607 0.0586,-3.10017 z"
       transform="translate(-43,-153.22928)"
       opacity="0.1"
       id="path18" />
    <path
       d="m 314.68367,154.74307 -7.059,-0.13332 a 8.47283,8.47283 0 0 0 -7.9484,5.13906 c -2.16363,5.04979 -4.06611,13.10879 0.38065,21.26594 a 5.83528,5.83528 0 0 0 5.06083,3.04224 l 9.01053,0.093 z"
       transform="translate(-43,-153.22928)"
       fill="#dce0ed"
       id="path20" />
    <ellipse
       cx="314.40598"
       cy="169.44653"
       rx="14.70609"
       ry="7.56076"
       transform="matrix(0.01888,-0.99982,0.99982,0.01888,96.05265,327.36749)"
       fill="#f0f0f4"
       id="ellipse22" />
    <path
       d="m 312.69581,160.082 c 0,0 2.78,0.49882 1.26052,4.15221 a 25.43232,25.43232 0 0 0 -1.77841,5.54533 c 0,0 -2.81585,1.39734 -2.61373,-3.39672 0.20212,-4.79406 3.13162,-6.30082 3.13162,-6.30082 z"
       transform="translate(-43,-153.22928)"
       fill="#dce0ed"
       id="path24" />
    <ellipse
       cx="592.05658"
       cy="375.5433"
       rx="48.355621"
       ry="44.118271"
       transform="rotate(-88.91801,492.48128,320.83857)"
       fill="#636780"
       id="ellipse26" />
    <path
       d="m 576.38435,329.9 c 23.05422,1.98855 40.9417,23.34113 40.45648,49.03256 -0.39112,20.70876 -12.60527,38.14911 -29.43239,44.721 C 564.3542,421.665 546.46678,400.31241 546.952,374.621 c 0.39112,-20.70875 12.60524,-38.14911 29.43235,-44.721 z"
       transform="translate(-43,-153.22928)"
       opacity="0.1"
       id="path28" />
    <ellipse
       cx="248.81146"
       cy="263.35727"
       rx="46.69392"
       ry="35.80975"
       transform="rotate(-88.91801,149.23616,208.65254)"
       fill="#636780"
       id="ellipse30" />
    <path
       d="m 259.66308,218.81621 c 14.74153,5.97106 25.24563,24.07518 24.84516,45.27929 -0.428,22.65958 -13.1659,41.31223 -29.668,45.24689 -14.74153,-5.97106 -25.24563,-24.07515 -24.84516,-45.27926 0.428,-22.65961 13.16592,-41.31226 29.668,-45.24692 z"
       transform="translate(-43,-153.22928)"
       opacity="0.1"
       id="path32" />
    <path
       d="M 383.49079,255.9289 383.14628,238.97 c 0,0 3.46089,-7.24745 6.79625,-7.84925 3.33536,-0.6018 10.9857,-0.87282 10.9857,-0.87282 0,0 5.52138,24.4526 1.39593,31.68749 -4.12545,7.23489 -18.83337,-6.00652 -18.83337,-6.00652 z"
       transform="translate(-43,-153.22928)"
       fill="#65617d"
       id="path34" />
    <path
       d="M 383.49079,255.9289 383.14628,238.97 c 0,0 3.46089,-7.24745 6.79625,-7.84925 3.33536,-0.6018 10.9857,-0.87282 10.9857,-0.87282 0,0 5.52138,24.4526 1.39593,31.68749 -4.12545,7.23489 -18.83337,-6.00652 -18.83337,-6.00652 z"
       transform="translate(-43,-153.22928)"
       opacity="0.1"
       id="path36" />
    <path
       d="m 444.8313,255.25921 c 0,0 2.50368,-23.45907 -10.404,-24.12579 -1.66083,-0.0858 -3.32174,-0.15712 -4.97373,-0.34862 -8.93451,-1.0357 -33.30816,-3.38007 -30.48934,2.25142 0,0 5.429,20.54515 1.34432,25.62021 z"
       transform="translate(-43,-153.22928)"
       fill="#65617d"
       id="path38" />
    <path
       d="m 261.0042,295.37334 -17.3296,0.1713 c 0,0 -2.38808,-31.95553 -3.33785,-34.46647 -0.94977,-2.51094 -1.22228,-14.4825 2.05041,-16.16579 3.27269,-1.68329 14.1534,-3.59685 14.1534,-3.59685 l 7.63117,18.343 0.31238,16.45971 z"
       transform="translate(-43,-153.22928)"
       fill="#65617d"
       id="path40" />
    <path
       d="m 261.0042,295.37334 -17.3296,0.1713 c 0,0 -2.38808,-31.95553 -3.33785,-34.46647 -0.94977,-2.51094 -1.22228,-14.4825 2.05041,-16.16579 3.27269,-1.68329 14.1534,-3.59685 14.1534,-3.59685 l 7.63117,18.343 0.31238,16.45971 z"
       transform="translate(-43,-153.22928)"
       opacity="0.1"
       id="path42" />
    <path
       d="m 303.87189,243.20666 0.14432,-3.551 a 2.04961,2.04961 0 0 0 -2.096,-2.13228 c -8.59156,0.20016 -39.85607,1.1064 -45.3796,3.79213 0,0 5.14092,44.59719 -1.66322,55.06394 l 1.56984,35.67959 76.61614,-4.28689 z"
       transform="translate(-43,-153.22928)"
       fill="#65617d"
       id="path44" />
    <path
       d="m 310.914,187.14239 c -2.11933,-0.24943 -4.642,-0.52644 -7.46392,-0.79912 l -0.0803,4.25156 7.47634,0.1412 z"
       transform="translate(-43,-153.22928)"
       opacity="0.1"
       id="path46" />
    <path
       d="m 236.94268,189.98842 -0.0102,0.53831 7.47634,0.1412 0.0611,-3.23476 a 31.93775,31.93775 0 0 0 -7.52727,2.55525 z"
       transform="translate(-43,-153.22928)"
       opacity="0.1"
       id="path48" />
    <polygon
       points="191.257,75.45 188.878,79.753 154.434,142.065 165.73,142.443 189.878,100.458 193.909,93.449 "
       fill="#dce0ed"
       id="polygon50" />
    <polygon
       points="279.178,66.64 276.185,70.133 257.596,91.825 262.115,98.891 276.376,80.353 282.903,71.86 "
       fill="#dce0ed"
       id="polygon52" />
    <path
       d="m 319.18476,223.36238 c -0.0267,0.35847 -0.0536,0.72692 -0.0856,1.10027 l 0.27648,9.11965 6.52754,-8.49255 -3.72566,-5.22088 z"
       transform="translate(-43,-153.22928)"
       opacity="0.1"
       id="path54" />
    <polygon
       points="193.909,93.449 191.257,75.45 188.878,79.753 189.878,100.458 "
       opacity="0.1"
       id="polygon56" />
    <path
       d="m 332.163,236.84368 c 0,0 6.36492,-41.5649 -13.82513,-48.17882 a 4.59123,4.59123 0 0 0 -0.79492,-0.17933 c -4.66286,-0.65248 -48.13714,-6.49859 -70.87266,-0.956 0,0 -15.495,2.03415 -15.48578,10.34433 l 4.89456,101.64074 11.13144,0.21024 -2.38742,-67.19 c 0,0 -4.76425,-29.34121 4.07888,-31.16859 8.84313,-1.82738 48.94583,-4.394 62.9925,-0.13989 0,0 10.34466,-2.13143 8.20317,23.25675 l 0.40726,13.63611 z"
       transform="translate(-43,-153.22928)"
       fill="#dce0ed"
       id="path58" />
    <path
       d="m 298.03648,248.58106 a 6.42651,6.42651 0 0 1 2.725,-5.68244 c 3.15986,-2.30868 12.851,-7.2363 12.851,-7.2363 l 3.11043,0.30805 8.9077,23.35315 -1.55261,49.20748 -17.21478,20.49144 z"
       transform="translate(-43,-153.22928)"
       fill="#65617d"
       id="path60" />
    <path
       d="m 298.03648,248.58106 a 6.42651,6.42651 0 0 1 2.725,-5.68244 c 3.15986,-2.30868 12.851,-7.2363 12.851,-7.2363 l 3.11043,0.30805 8.9077,23.35315 -1.55261,49.20748 -17.21478,20.49144 z"
       transform="translate(-43,-153.22928)"
       opacity="0.1"
       id="path62" />
    <path
       d="m 364.18311,301.43549 0.62162,-50.51311 c 0,0 1.86553,-19.57639 -9.84113,-20.12988 0,0 -27.62919,-0.3206 -39.70039,3.34911 a 2.6812,2.6812 0 0 0 -1.58495,3.84343 c 2.31084,4.20466 6.13231,15.28988 7.54367,43.56759 l -0.57187,30.27918 z"
       transform="translate(-43,-153.22928)"
       fill="#65617d"
       id="path64" />
    <polygon
       points="335.103,145.976 321.387,146.216 277.591,155.111 263.863,175.793 262.3,179.378 312.583,179.156 312.633,179.157 337.345,179.051 "
       fill="#65617d"
       id="polygon66"
       transform="translate(-0.20389,1.99021)" />
    <polygon
       points="337.345,179.051 335.103,145.976 321.387,146.216 277.591,155.111 263.863,175.793 262.3,179.378 312.583,179.156 312.633,179.157 "
       opacity="0.1"
       id="polygon68"
       transform="translate(217.88828,-15.897751)" />
    <polygon
       points="263.863,175.793 262.3,179.378 312.583,179.156 313.828,157.042 277.591,155.111 "
       fill="#65617d"
       id="polygon70"
       transform="translate(-0.20382,1.99031)" />
    <path
       d="m 312.42868,181.14758 24.71265,-0.10663 -2.24228,-33.07464 c 0,0 -7.95854,12.19006 -21.27487,11.066 z"
       fill="#ffffff"
       opacity="0.1"
       id="path72" />
    <path
       d="m 177.844,355.75384 c 0.818,9.48886 7.57493,8.12067 7.57493,8.12067 l 1.2582,-0.0909 12.472,-0.89625 -0.22072,-14.71289 a 54.10713,54.10713 0 0 0 -12.64439,0.519 c -4.68841,0.87878 -8.80413,2.84533 -8.44002,7.0604 z"
       transform="translate(-43,-153.22928)"
       fill="#dce0ed"
       id="path74" />
    <path
       d="m 177.844,355.75384 c 0.818,9.48886 7.57493,8.12067 7.57493,8.12067 l 1.2582,-0.0909 a 12.72462,12.72462 0 0 0 2.11805,-7.075 11.96694,11.96694 0 0 0 -2.5112,-8.01508 c -4.68837,0.87872 -8.80409,2.84527 -8.43998,7.06034 z"
       transform="translate(-43,-153.22928)"
       opacity="0.1"
       id="path76" />
    <path
       d="m 351.61824,262.72283 c -0.29027,15.3693 8.698,28.0028 20.07588,28.21769 11.37788,0.21489 20.8368,-12.0702 21.12708,-27.4395 0.29028,-15.3693 -8.698,-28.0028 -20.07591,-28.21769 -11.37791,-0.21489 -20.83677,12.0702 -21.12705,27.4395 z m 7.77412,1.975 c 0.21056,-11.14849 7.41051,-20.05336 16.08156,-19.88959 8.67105,0.16377 15.52963,9.33415 15.31907,20.48264 -0.21056,11.14849 -7.41052,20.05336 -16.08156,19.8896 -8.67104,-0.16376 -15.52963,-9.33414 -15.31907,-20.48261 z"
       transform="translate(-43,-153.22928)"
       fill="#636780"
       id="path78" />
    <polygon
       points="314.917,119.169 329.027,111.292 328.061,118.42 318.246,127.708 "
       fill="#636780"
       id="polygon80" />
    <polygon
       points="360.593,142.687 363.676,135.665 371.027,121.349 352.904,112.451 332.884,110.303 323.904,85.943 316.766,57.782 315.626,24.424 307.217,25.287 304.035,28.926 308.353,50.248 317.733,84.646 323.868,108.256 328.227,122.605 330.819,141.535 333.523,154.566 342.203,163.58 "
       fill="#6c63ff"
       id="polygon82" />
    <polyline
       points="483.428 128.833 492.655 221.083 354.702 212.66 371.505 167.771 398.414 150.994 337.587 150.843 337.732 125.583 362.421 120.731 412.006 117.679 449.253 116.72 484.588 129.022"
       fill="#65617d"
       id="polyline84" />
    <polyline
       points="483.428 128.833 492.655 221.083 354.702 212.66 371.505 167.771 398.414 150.994 337.587 150.843 337.732 125.583 362.421 120.731 412.006 117.679 449.253 116.72 484.588 129.022"
       opacity="0.1"
       id="polyline86" />
    <path
       d="m 292.86946,218.99113 c -0.432,22.87216 6.77363,43.83688 27.90348,41.95549 26.60673,-0.0676 29.03584,-17.99978 29.46781,-40.872 0.43197,-22.87222 -12.08954,-40.1365 -27.93218,-40.43572 -15.84264,-0.29922 -29.00713,16.48003 -29.43911,39.35223 z"
       fill="#636780"
       id="path88" />
    <path
       d="m 292.70278,219.02684 c 0.33444,-17.70793 8.30172,-31.76108 19.23415,-37.06671 13.85524,2.90687 24.24395,19.10356 23.84984,39.97084 -0.354,18.74393 -2.053,34.16736 -17.29707,39.16256 -19.49538,0.33234 -26.20413,-19.97631 -25.78692,-42.06669 z"
       opacity="0.1"
       id="path90" />
    <polygon
       points="176.092,141.268 208.693,141.146 247.492,140.846 255.054,162.23 260.824,176.941 266.655,180.592 274.589,190.034 260.039,187.252 249.317,177.019 239.953,157.372 226.398,148.708 192.693,152.644 161.558,153.236 150.265,142.818 163.111,141.317 "
       fill="#6c63ff"
       id="polygon92" />
    <path
       d="m 197.36226,369.58468 c 0.64412,1.00937 22.34744,4.74493 22.34744,4.74493 l 59.9326,12.10113 103.3147,3.44706 12.32121,-10.07336 6.34849,1.25171 0.25831,0.0498 84.79544,16.71409 1.3894,-0.17321 23.254,-2.86651 121.45278,-14.9777 -1.02362,-17.61 -0.60646,-10.39232 -1.25281,-21.57815 -1.05955,-5.67416 -10.76719,-1.19055 -5.03029,-0.5587 -78.48,-8.697 -10.25971,-1.13609 -5.75179,-0.63714 -56.013,-8.70145 -81.94346,0.44677 0.143,-25.26138 L 350.217,178.516 c -7.16434,1.02641 -7.09088,5.84928 -7.09088,5.84928 l 25.80488,94.38878 -0.75492,57.65888 c -57.46788,4.70836 -59.081,-7.822 -68.23685,-3.78177 L 289.636,297.37 193.26648,296.04851 c -3.91067,4.57809 4.09578,73.53617 4.09578,73.53617 z"
       transform="translate(-43,-153.22928)"
       fill="#65617d"
       id="path94" />
    <polygon
       points="362.113,189.864 374.307,168.987 394.426,168.536 362.616,233.585 352.251,236.711 349.962,226.033 "
       fill="#65617d"
       id="polygon96" />
    <polygon
       points="362.113,189.864 374.307,168.987 394.426,168.536 362.616,233.585 352.251,236.711 349.962,226.033 "
       opacity="0.15"
       id="polygon98" />
    <ellipse
       cx="455.95795"
       cy="394.41269"
       rx="62.812462"
       ry="55.374611"
       transform="matrix(0.01888,-0.99982,0.99982,0.01888,10.00564,689.61229)"
       fill="#636780"
       id="ellipse100" />
    <path
       d="m 437.32147,335.156 c 28.935,2.56395 51.36889,30.28516 50.7386,63.65753 -0.508,26.9 -15.85314,49.56436 -36.97923,58.11485 -28.935,-2.564 -51.36884,-30.2852 -50.73855,-63.65754 0.50805,-26.90006 15.8531,-49.56438 36.97918,-58.11484 z"
       transform="translate(-43,-153.22928)"
       opacity="0.1"
       id="path102" />
    <path
       d="m 606.43566,287.39805 2.49733,12.97088 7.64093,39.73819 36.12178,-2.808 c 0,0 2.28366,-6.60322 -3.31641,-9.202 0,0 -1.42929,-22.52883 -7.95943,-29.73729 a 6.78036,6.78036 0 0 0 -2.58227,-1.87364 z"
       transform="translate(-43,-153.22928)"
       fill="#65617d"
       id="path104" />
    <path
       d="m 608.933,300.36893 7.64093,39.73819 36.12178,-2.808 c 0,0 2.28366,-6.60322 -3.31641,-9.202 0,0 -1.42929,-22.52883 -7.95943,-29.73729 z"
       transform="translate(-43,-153.22928)"
       fill="#ffffff"
       opacity="0.1"
       id="path106" />
    <path
       d="m 525.12687,289.3526 c -4.79771,7.71746 5.13782,79.87312 5.13782,79.87312 l 88.83094,-12.95124 -1.96581,-63.02531 c -1.6158,-11.33381 -8.23475,-12.78508 -8.23475,-12.78508 -30.938,-16.375 -102.64809,-21.055 -102.64809,-21.055 -65.50493,1.25584 -125.51519,19.40335 -125.51519,19.40335 74.64598,-10.05803 144.39508,10.54016 144.39508,10.54016 z"
       transform="translate(-43,-153.22928)"
       fill="#65617d"
       id="path108" />
    <path
       d="m 530.26469,369.22572 88.83094,-12.95124 -1.96581,-63.02531 c -1.6158,-11.33381 -8.23475,-12.78508 -8.23475,-12.78508 0,0 -64.51429,-7.3712 -83.7682,8.88851 -4.79771,7.71746 5.13782,79.87312 5.13782,79.87312 z"
       transform="translate(-43,-153.22928)"
       opacity="0.1"
       id="path110" />
    <path
       d="M 539.70459,365.24735 613.9832,354.16887 612.35982,300.397 c -1.34737,-9.66936 -6.88121,-10.90544 -6.88121,-10.90544 0,0 -53.94013,-6.26823 -70.04418,7.61058 -4.01401,6.586 4.27016,68.14521 4.27016,68.14521 z"
       transform="translate(-43,-153.22928)"
       fill="#65617d"
       id="path112" />
    <ellipse
       cx="546.63062"
       cy="321.16891"
       rx="18.444929"
       ry="10.1364"
       transform="rotate(-88.91801,447.05528,266.46418)"
       opacity="0.1"
       id="ellipse114" />
    <ellipse
       cx="546.64001"
       cy="320.6705"
       rx="18.444929"
       ry="10.1364"
       transform="rotate(-88.91801,447.0647,265.96575)"
       fill="#dce0ed"
       id="ellipse116" />
    <path
       d="m 545.56818,307.02183 c 0,0 4.141,0.743 1.87759,6.18487 a 37.88258,37.88258 0 0 0 -2.649,8.26 c 0,0 -4.19431,2.08138 -3.89325,-5.05954 0.30106,-7.14092 4.66466,-9.38533 4.66466,-9.38533 z"
       transform="translate(-43,-153.22928)"
       fill="#f0f0f4"
       id="path118" />
    <ellipse
       cx="601.09674"
       cy="314.88477"
       rx="17.23543"
       ry="9.4717197"
       transform="rotate(-88.91801,501.52142,260.18005)"
       opacity="0.1"
       id="ellipse120" />
    <ellipse
       cx="601.10614"
       cy="314.38635"
       rx="17.23543"
       ry="9.4717197"
       transform="rotate(-88.91801,501.53083,259.68162)"
       fill="#dce0ed"
       id="ellipse122" />
    <path
       d="m 600.03431,300.73771 c 0,0 4.141,0.743 1.87759,6.18486 a 37.88206,37.88206 0 0 0 -2.649,8.26 c 0,0 -4.19431,2.08139 -3.89325,-5.05954 0.30106,-7.14093 4.66466,-9.38532 4.66466,-9.38532 z"
       transform="translate(-43,-153.22928)"
       fill="#f0f0f4"
       id="path124" />
    <path
       d="m 558.55709,305.76966 c 0.53423,6.826 2.90483,57.39392 2.90483,57.39392 l 5.65495,-0.83553 3.14489,-0.45916 4.19,-0.61889 0.505,-0.0752 16.50472,-2.43058 -2.23784,-53.63683 a 6.71636,6.71636 0 0 0 -6.66448,-6.43315 c -0.16455,0.002 -0.33412,0.004 -0.50385,0.0154 -1.1383,0.0782 -2.36669,0.17469 -3.64529,0.29013 -0.5394,0.0496 -1.08383,0.0992 -1.63838,0.15853 -1.58357,0.15956 -3.21776,0.35806 -4.82269,0.592 -0.82006,0.12414 -1.62524,0.25351 -2.42064,0.39306 -1.34584,0.24384 -2.64731,0.51342 -3.84981,0.82479 -0.81667,0.20892 -1.59383,0.43856 -2.3066,0.68937 -2.99097,1.02046 -4.95602,2.36952 -4.81481,4.13218 z"
       transform="translate(-43,-153.22928)"
       opacity="0.1"
       id="path126" />
    <path
       d="m 582.5591,298.67419 2.08258,60.27526 1.83231,-0.12994 -2.06027,-59.871 a 6.74685,6.74685 0 0 0 -1.85462,-0.27432 z"
       transform="translate(-43,-153.22928)"
       fill="#65617d"
       id="path128" />
    <path
       d="m 576.77158,299.13826 1.86709,60.85953 2.82605,0.0534 -3.05472,-61.07143 c -0.53944,0.0496 -1.08387,0.0993 -1.63842,0.15853 z"
       transform="translate(-43,-153.22928)"
       fill="#65617d"
       id="path130" />
    <path
       d="m 569.52825,300.12331 3.60264,61.10174 1.8292,0.0345 -0.003,-0.0848 -3.00781,-61.4445 c -0.82006,0.12414 -1.62524,0.25351 -2.42064,0.39306 z"
       transform="translate(-43,-153.22928)"
       fill="#65617d"
       id="path132" />
    <path
       d="m 563.37184,301.63747 3.745,60.69058 0.008,0.11482 3.16133,-0.27435 -0.0243,-0.29963 -4.58332,-60.92079 c -0.81664,0.2089 -1.5938,0.43856 -2.30657,0.68937 z"
       transform="translate(-43,-153.22928)"
       fill="#65617d"
       id="path134" />
    <path
       d="m 630.06181,349.83527 c 0,0 6.70108,-31.40992 -7.22416,-33.29337 -13.92524,-1.88345 -59.84367,0.61486 -58.71776,13.59973 1.12591,12.98487 2.24935,32.70082 2.24935,32.70082 l 9.51,-1.93944 c 0,0 -6.54242,-29.79029 4.56867,-30.7023 11.11109,-0.91201 38.334,-3.5141 38.334,-3.5141 0,0 7.37527,-1.10721 2.64682,24.85536 z"
       transform="translate(-43,-153.22928)"
       opacity="0.1"
       id="path136" />
    <path
       d="m 630.00533,352.82581 c 0,0 6.73873,-33.40362 -7.18651,-35.28707 -13.92524,-1.88345 -59.84367,0.61486 -58.71776,13.59974 1.12591,12.98488 2.24935,32.70081 2.24935,32.70081 l 9.51,-1.93944 c 0,0 -6.54242,-29.79029 4.56866,-30.70229 11.11108,-0.912 38.334,-3.51411 38.334,-3.51411 0,0 7.33761,0.88649 2.60917,26.84906 z"
       transform="translate(-43,-153.22928)"
       fill="#dce0ed"
       id="path138" />
    <path
       d="m 382.957,389.8778 12.29432,0.0627 c 9.71838,-39.3704 24.97094,-63.67831 24.97094,-63.67831 5.0345,-2.56745 59.52075,-1.20431 59.52075,-1.20431 5.63327,1.10359 6.78965,19.075 6.78965,19.075 0,0 -4.89815,4.06081 -0.29813,6.81023 2.056,1.2255 8.89012,1.57895 16.77784,1.32406 9.79361,-0.32361 21.21563,-1.59371 27.13673,-3.32172 10.69912,-3.12362 2.342,-9.42918 2.342,-9.42918 0,0 -1.45762,-2.02193 -2.24736,-13.00605 a 44.33217,44.33217 0 0 0 -5.724,-18.21229 c -0.44413,-0.77126 -0.72541,-1.19042 -0.72541,-1.19042 a 5.74958,5.74958 0 0 0 -1.9209,-1.25284 c -13.97432,-6.14744 -83.11666,-1.849 -83.11666,-1.849 l -25.73786,7.661 c -0.71312,0.27074 -1.83874,2.05441 -3.2389,4.90989 C 401.3681,333.764 382.957,389.8778 382.957,389.8778 Z"
       transform="translate(-43,-153.22928)"
       fill="#65617d"
       id="path140" />
    <path
       d="m 382.957,389.8778 12.29432,0.0627 c 9.71838,-39.3704 24.97094,-63.67831 24.97094,-63.67831 5.0345,-2.56745 59.52075,-1.20431 59.52075,-1.20431 5.63327,1.10359 6.78965,19.075 6.78965,19.075 0,0 -4.89815,4.06081 -0.29813,6.81023 2.056,1.2255 8.89012,1.57895 16.77784,1.32406 9.79361,-0.32361 21.21563,-1.59371 27.13673,-3.32172 10.69912,-3.12362 2.342,-9.42918 2.342,-9.42918 0,0 -1.45762,-2.02193 -2.24736,-13.00605 a 44.33217,44.33217 0 0 0 -5.724,-18.21229 c -0.44413,-0.77126 -0.72541,-1.19042 -0.72541,-1.19042 a 5.74958,5.74958 0 0 0 -1.9209,-1.25284 c -13.97432,-6.14744 -83.11666,-1.849 -83.11666,-1.849 l -25.73786,7.661 c -0.71312,0.27074 -1.83874,2.05441 -3.2389,4.90989 C 401.3681,333.764 382.957,389.8778 382.957,389.8778 Z"
       transform="translate(-43,-153.22928)"
       opacity="0.1"
       id="path142" />
    <path
       d="m 409.78,316.57658 c 23.79356,-8.72987 88.7906,-2.631 88.7906,-2.631 7.02476,-5.78072 20.036,-5.92391 25.94913,-5.64768 -0.44413,-0.77126 -0.72541,-1.19042 -0.72541,-1.19042 a 5.74958,5.74958 0 0 0 -1.9209,-1.25284 c -13.97432,-6.14744 -83.11666,-1.849 -83.11666,-1.849 l -25.73786,7.661 c -0.7131,0.27079 -1.83872,2.05446 -3.2389,4.90994 z"
       transform="translate(-43,-153.22928)"
       fill="#65617d"
       id="path144" />
    <path
       d="m 494.70066,316.36553 c 1.398,5.17693 7.15443,25.8978 7.15443,25.8978 a 87.51618,87.51618 0 0 1 1.15729,10.00385 c 9.79361,-0.32361 21.21563,-1.59371 27.13673,-3.32172 10.69912,-3.12362 2.342,-9.42918 2.342,-9.42918 0,0 -1.45762,-2.02193 -2.24736,-13.00605 a 44.14756,44.14756 0 0 0 -6.44941,-19.40271 5.74958,5.74958 0 0 0 -1.9209,-1.25284 c -9.27689,2.00367 -28.2306,6.59181 -27.17278,10.51085 z"
       transform="translate(-43,-153.22928)"
       fill="#65617d"
       id="path146" />
    <path
       d="m 494.70066,316.36553 c 1.398,5.17693 7.15443,25.8978 7.15443,25.8978 a 87.51618,87.51618 0 0 1 1.15729,10.00385 c 9.79361,-0.32361 21.21563,-1.59371 27.13673,-3.32172 10.69912,-3.12362 2.342,-9.42918 2.342,-9.42918 0,0 -1.45762,-2.02193 -2.24736,-13.00605 a 44.14756,44.14756 0 0 0 -6.44941,-19.40271 5.74958,5.74958 0 0 0 -1.9209,-1.25284 c -9.27689,2.00367 -28.2306,6.59181 -27.17278,10.51085 z"
       transform="translate(-43,-153.22928)"
       fill="#ffffff"
       opacity="0.1"
       id="path148" />
    <path
       d="M 350.217,178.516 380.73177,278.81241 507.97338,260.399 491.16214,200.12479 c 0,0 -2.60706,-13.76075 -9.19233,-14.88233 0,0 -101.71787,-19.62146 -131.75281,-6.72646 z m 14.16244,15.72409 c -4.107,-13.53978 56.34542,-6.78878 56.34542,-6.78878 8.13906,-0.62909 17.94858,0.0548 27.06708,1.15938 3.3379,0.40707 6.58,0.87217 9.61745,1.34838 6.7758,1.06531 12.52815,2.20107 15.96989,2.91926 2.19022,0.45519 3.44625,0.74318 3.44625,0.74318 12.01615,3.96645 17.92811,53.93815 17.92811,53.93815 0.898,5.25227 -5.3111,4.01315 -5.3111,4.01315 l -0.404,0.007 -5.66123,0.11247 -16.87916,0.34435 -82.30046,1.66161 c -4.85021,-0.5902 -5.48958,-6.33619 -5.48958,-6.33619 -2.53904,-4.16136 -14.32865,-53.12227 -14.32865,-53.12227 z"
       transform="translate(-43,-153.22928)"
       fill="#65617d"
       id="path150" />
    <path
       d="m 489.03856,251.58012 0.404,-0.007 c 0,0 6.20911,1.23912 5.3111,-4.01315 0,0 -5.912,-49.9717 -17.92811,-53.93815 0,0 -1.256,-0.288 -3.44625,-0.74318 4.22938,8.64584 17.75602,38.23395 15.65926,58.70179 z"
       transform="translate(-43,-153.22928)"
       fill="#65617d"
       id="path152" />
    <path
       d="m 489.03856,251.58012 0.404,-0.007 c 0,0 6.20911,1.23912 5.3111,-4.01315 0,0 -5.912,-49.9717 -17.92811,-53.93815 0,0 -1.256,-0.288 -3.44625,-0.74318 4.22938,8.64584 17.75602,38.23395 15.65926,58.70179 z"
       transform="translate(-43,-153.22928)"
       opacity="0.1"
       id="path154" />
    <path
       d="m 475.55213,374.30024 a 8.02234,8.02234 0 0 0 7.43169,4.35354 l 2.53906,-0.0617 23.97368,-0.57933 8.63974,-0.21078 7.98729,-0.51226 105.62941,-15.09706 -0.60646,-10.39232 -12.14443,1.50578 -5.02269,0.62313 -74.55062,9.23211 -9.8105,1.21578 -4.75776,0.58823 -20.10366,-0.52427 -21.76309,-0.57059 a 8.22136,8.22136 0 0 0 -3.22152,0.55742 7.82152,7.82152 0 0 0 -4.29235,3.9277 6.56646,6.56646 0 0 0 0.0722,5.94467 z"
       transform="translate(-43,-153.22928)"
       opacity="0.1"
       id="path156" />
    <path
       d="m 475.53331,375.29709 a 8.02232,8.02232 0 0 0 7.43169,4.35354 l 35.15248,-0.85186 7.98728,-0.51226 112.64377,-16.10138 8.85407,-1.26376 4.82457,-0.69169 c 9.50768,-1.81483 6.86049,-11.33824 6.86049,-11.33824 -0.5813,-4.33386 -16.78945,-8.62878 -22.10585,-8.55965 -3.57576,0.0422 -4.1782,5.54032 -4.18645,9.145 -0.003,1.765 0.13142,3.07384 0.13142,3.07384 l -5.26758,0.65341 -103.01748,12.75812 -41.86672,-1.09486 a 8.04529,8.04529 0 0 0 -7.51387,4.48511 6.56648,6.56648 0 0 0 0.0722,5.94468 z"
       transform="translate(-43,-153.22928)"
       fill="#dce0ed"
       id="path158" />
    <path
       d="m 644.70971,346.45551 c 0,0 -4.58936,5.39793 -11.583,6.09685 4e-5,0 2.94053,-6.09387 11.583,-6.09685 z"
       transform="translate(-43,-153.22928)"
       opacity="0.1"
       id="path160" />
    <path
       d="m 645.58087,361.92858 c 0,0 14.79282,-0.053 14.6422,7.92175 -0.15062,7.97475 -9.47961,9.12817 -9.47961,9.12817 l -132.5621,22.925 -37.56036,-0.0446 c 0,0 -12.92745,-10.71477 0.784,-15.10941 l 37.8613,1.71227 126.371,-20.71511 c 0,0 -3.23821,-4.54856 -0.0564,-5.81807 z"
       transform="translate(-43,-153.22928)"
       opacity="0.1"
       id="path162" />
    <path
       d="m 480.60214,402.85574 37.55871,0.0462 117.87024,-20.38535 8.62406,-1.49248 6.0678,-1.04715 c 0,0 9.33068,-1.155 9.4813,-9.12979 0.10806,-5.72192 -7.48551,-7.31126 -11.78012,-7.75138 -1.687,-0.17145 -2.86377,-0.16875 -2.86377,-0.16875 -3.18006,1.2662 0.0597,5.81479 0.0597,5.81479 l -4.60141,0.75574 -121.77127,19.96268 -37.8613,-1.71227 c -13.70972,4.39301 -0.78393,15.10775 -0.78393,15.10775 z"
       transform="translate(-43,-153.22928)"
       fill="#dce0ed"
       id="path164" />
    <path
       d="m 634.57181,355.23885 -7.74273,-3.63643 -3.98424,-0.24145 -0.30156,33.56673 12.34149,-2.25991 5.21312,-3.22555 2.7557,-13.90876 c 0,0 -0.887,-5.83376 -1.376,-6.3416 -0.489,-0.50784 -6.90578,-3.95303 -6.90578,-3.95303 z"
       transform="translate(-43,-153.22928)"
       fill="#dce0ed"
       id="path166" />
    <path
       d="m 634.57181,355.23885 -7.74273,-3.63643 -3.98424,-0.24145 -0.30156,33.56673 12.34149,-2.25991 5.21312,-3.22555 2.7557,-13.90876 c 0,0 -0.887,-5.83376 -1.376,-6.3416 -0.489,-0.50784 -6.90578,-3.95303 -6.90578,-3.95303 z"
       transform="translate(-43,-153.22928)"
       opacity="0.1"
       id="path168" />
    <path
       d="m 636.03109,382.5166 c -0.0969,0.11283 -0.14785,0.1717 -0.14785,0.1717 l 8.66911,-1.50161 c 0.0359,-0.0542 0.0719,-0.10832 0.1028,-0.16257 4.69425,-7.25575 5.19559,-13.20952 3.769,-17.92832 -1.687,-0.17145 -2.86377,-0.16875 -2.86377,-0.16875 -3.18006,1.2662 0.0597,5.81479 0.0597,5.81479 l -4.60141,0.75574 c 0.18496,6.57507 -4.12566,11.9982 -4.98757,13.01902 z"
       transform="translate(-43,-153.22928)"
       opacity="0.1"
       id="path170" />
    <path
       d="m 623.84006,351.37808 q 2.17461,0.8862 4.01914,1.826 c 5.53646,2.797 8.93348,5.88269 10.88933,8.98105 l 8.85407,-1.26376 c -3.67765,-8.02713 -12.75017,-11.82831 -12.75017,-11.82831 l -1.85707,0.38377 z"
       transform="translate(-43,-153.22928)"
       opacity="0.1"
       id="path172" />
    <path
       d="m 633.8572,349.076 c 0,0 24.07458,10.0943 9.69828,32.0936 l -8.67071,1.49824 c 0,0 17.48278,-19.28143 -12.03993,-31.30682 z"
       transform="translate(-43,-153.22928)"
       fill="#dce0ed"
       id="path174" />
    <polygon
       points="523.871,205.052 524.685,241.133 539.19,238.748 545.393,235.873 548.353,228.783 550.481,221.676 545.786,215.106 540.372,211.347 532.836,205.554 "
       fill="#dce0ed"
       id="polygon176" />
    <polygon
       points="523.871,205.052 524.685,241.133 539.19,238.748 545.393,235.873 548.353,228.783 550.481,221.676 545.786,215.106 540.372,211.347 532.836,205.554 "
       opacity="0.1"
       id="polygon178" />
    <ellipse
       cx="576.48163"
       cy="377.40976"
       rx="7.3115001"
       ry="4.3204298"
       transform="rotate(-88.91801,476.90631,322.70501)"
       fill="#dce0ed"
       id="ellipse180" />
    <path
       d="m 617.49235,388.11168 a 2.34444,2.34444 0 0 1 1.11382,3.29714 c -1.01331,1.81335 -2.233,4.1605 -2.1343,4.78893 0.1669,1.06267 -2.18413,0.14572 -2.49094,-0.10937 -0.30681,-0.25509 -4.61041,-0.0871 -4.80432,-3.02 a 5.06964,5.06964 0 0 1 2.38993,-4.44227 l -0.87565,-6.436 5.92819,-0.38664 -0.17291,5.85529 z"
       transform="translate(-43,-153.22928)"
       fill="#636780"
       id="path182" />
    <path
       d="m 617.49235,388.11168 a 2.34444,2.34444 0 0 1 1.11382,3.29714 c -1.01331,1.81335 -2.233,4.1605 -2.1343,4.78893 0.1669,1.06267 -2.18413,0.14572 -2.49094,-0.10937 -0.30681,-0.25509 -4.61041,-0.0871 -4.80432,-3.02 a 5.06964,5.06964 0 0 1 2.38993,-4.44227 l -0.87565,-6.436 5.92819,-0.38664 -0.17291,5.85529 z"
       transform="translate(-43,-153.22928)"
       opacity="0.1"
       id="path184" />
    <path
       d="m 615.87956,387.95965 c 0,0 -2.12313,6.81566 -1.2556,7.08134 0.86753,0.26568 1.2556,-7.08134 1.2556,-7.08134 z"
       transform="translate(-43,-153.22928)"
       opacity="0.1"
       id="path186" />
    <path
       d="m 613.66725,386.29742 c 0,0 -2.12313,6.81566 -1.25559,7.08134 0.86754,0.26568 1.25559,-7.08134 1.25559,-7.08134 z"
       transform="translate(-43,-153.22928)"
       opacity="0.1"
       id="path188" />
    <path
       d="m 590.17275,365.20163 2.93532,20.6676 c 0,0 4.12262,-0.48556 6.39966,-0.93117 a 4.5624,4.5624 0 0 0 1.43885,-0.41659 c 0.11682,-0.11246 0.36086,-0.0979 0.68359,-0.027 l 0.005,1e-4 c 1.10228,0.24519 3.05869,1.19958 3.45708,0.43425 a 0.67638,0.67638 0 0 1 0.11274,-0.16239 l 0.005,-0.005 c 0.39678,-0.41631 1.14856,-0.093 1.87915,0.0305 a 1.59156,1.59156 0 0 0 1.16426,-0.13258 c 0.62076,-0.39713 1.84941,0.28423 2.86207,0.52274 0.64031,0.15172 1.19412,0.13223 1.45924,-0.44112 a 1.34887,1.34887 0 0 1 1.00522,-0.689 l 0.005,9e-5 c 0.96149,-0.22119 2.29914,-0.0314 3.07479,-0.18127 0.30519,-0.0541 0.51669,-0.16474 0.59043,-0.37276 0.158,-0.44576 1.01931,-0.64389 1.93972,-0.801 1.11552,-0.19332 2.31466,-0.32527 2.41294,-0.77713 0.0277,-0.149 0.13863,-0.21177 0.30318,-0.21366 a 10.02985,10.02985 0 0 1 1.81079,0.483 l 0.005,9e-5 c 0.49607,0.134 0.90967,0.14682 1.03607,-0.2098 0.137,-0.39129 0.70935,-0.33563 1.35927,-0.1638 0.52588,0.13958 1.10519,0.35493 1.55178,0.46808 0.402,0.0973 0.69084,0.11777 0.74424,-0.0707 0.177,-0.6598 2.307,0.87623 2.83051,-0.44514 0.52351,-1.32137 7.50323,-9.99484 -1.08738,-21.6249 0,0 -2.38559,0.11949 -4.211,0.41408 a 6.57053,6.57053 0 0 0 -1.76378,0.46029 c -0.01,-1.9e-4 -0.0151,0.005 -0.0251,0.01 a 10.22676,10.22676 0 0 1 -3.20686,0.30839 4.18323,4.18323 0 0 0 -1.79234,0.39 1.17157,1.17157 0 0 0 -0.50849,0.52387 c -0.29107,0.62774 -0.93152,0.74528 -1.62854,0.69222 -0.941,-0.0726 -1.98092,-0.45123 -2.36826,-0.2691 a 0.24448,0.24448 0 0 1 -0.0352,0.0143 c -0.70346,0.28586 -3.30474,-0.0524 -3.75653,0.37281 a 0.25057,0.25057 0 0 0 -0.0356,0.0392 c -0.19467,0.27557 -1.21088,-0.0378 -2.24993,-0.19706 l -0.005,-9e-5 a 2.53791,2.53791 0 0 0 -2.06959,0.285 2.25928,2.25928 0 0 1 -1.62891,0.4479 9.34486,9.34486 0 0 0 -2.11491,0.0448 0.84333,0.84333 0 0 0 -0.42368,0.25624 c -0.43353,0.51537 -1.444,0.42647 -2.347,0.45427 a 2.38594,2.38594 0 0 0 -1.32711,0.309 1.18385,1.18385 0 0 1 -0.48226,0.19032 14.27034,14.27034 0 0 1 -4.00354,-0.275 z"
       transform="translate(-43,-153.22928)"
       fill="#636780"
       id="path190" />
    <path
       d="m 626.11718,381.81578 c 0.52588,0.13958 1.10519,0.35493 1.55178,0.46808 6.94631,-10.33942 1.41446,-18.39658 -1.72365,-21.72666 a 6.57053,6.57053 0 0 0 -1.76378,0.46029 c 6.62585,7.94819 3.2963,17.65789 1.93565,20.79829 z"
       transform="translate(-43,-153.22928)"
       opacity="0.1"
       id="path192" />
    <path
       d="m 621.90606,381.70633 a 10.02985,10.02985 0 0 1 1.81079,0.483 l 0.005,9e-5 c 5.96958,-10.10357 0.17261,-17.85162 -2.77227,-20.854 a 4.18323,4.18323 0 0 0 -1.79234,0.39 c 6.33104,7.18967 4.24607,15.94558 2.74882,19.98091 z"
       transform="translate(-43,-153.22928)"
       opacity="0.1"
       id="path194" />
    <path
       d="m 616.65979,383.87089 c 0.30519,-0.0541 0.51669,-0.16474 0.59043,-0.37276 0.158,-0.44576 1.01931,-0.64389 1.93972,-0.801 5.23867,-9.15508 0.84217,-16.34317 -2.16974,-19.75566 -0.941,-0.0726 -1.98092,-0.45123 -2.36826,-0.2691 a 0.24448,0.24448 0 0 1 -0.0352,0.0143 c 6.99599,8.14962 3.35535,18.22732 2.04302,21.18421 z"
       transform="translate(-43,-153.22928)"
       opacity="0.1"
       id="path196" />
    <path
       d="m 611.11555,385.18221 c 0.64031,0.15172 1.19412,0.13223 1.45924,-0.44112 a 1.34887,1.34887 0 0 1 1.00522,-0.689 l 0.005,9e-5 c 6.10587,-10.19077 0.22539,-18.00519 -2.72476,-20.99268 a 0.25057,0.25057 0 0 0 -0.0356,0.0392 c -0.19467,0.27557 -1.21088,-0.0378 -2.24993,-0.19706 8.23338,8.63169 3.7045,19.80457 2.54088,22.28058 z"
       transform="translate(-43,-153.22928)"
       opacity="0.1"
       id="path198" />
    <path
       d="m 605.21007,384.76155 c 0.39678,-0.41631 1.14856,-0.093 1.87915,0.0305 6.34868,-10.11139 0.8375,-17.94378 -2.218,-21.15761 a 9.34486,9.34486 0 0 0 -2.11491,0.0448 c 7.0411,7.87127 3.88937,17.66906 2.45376,21.0823 z"
       transform="translate(-43,-153.22928)"
       opacity="0.1"
       id="path200" />
    <path
       d="m 599.50773,384.93806 a 4.5624,4.5624 0 0 0 1.43885,-0.41659 c 0.11682,-0.11246 0.36086,-0.0979 0.68359,-0.027 l 0.005,1e-4 c 5.63414,-9.23736 1.41424,-16.53679 -1.6496,-20.10482 a 2.38594,2.38594 0 0 0 -1.32711,0.309 1.18385,1.18385 0 0 1 -0.48226,0.19032 c 5.82069,7.81334 2.64508,17.02735 1.33153,20.04899 z"
       transform="translate(-43,-153.22928)"
       opacity="0.1"
       id="path202" />
    <ellipse
       cx="438.16422"
       cy="397.06824"
       rx="39.880932"
       ry="27.0858"
       transform="rotate(-88.91801,338.5889,342.36349)"
       fill="#636780"
       id="ellipse204" />
    <ellipse
       cx="439.06699"
       cy="397.66699"
       rx="32.320171"
       ry="19.69121"
       transform="rotate(-88.91801,339.4917,342.96224)"
       opacity="0.1"
       id="ellipse206" />
    <ellipse
       cx="439.08582"
       cy="396.67014"
       rx="32.320171"
       ry="19.69121"
       transform="rotate(-88.91801,339.51052,341.96539)"
       fill="#f0f0f4"
       id="ellipse208" />
    <ellipse
       cx="435.92328"
       cy="374.9213"
       rx="3.98809"
       ry="2.32639"
       transform="rotate(-88.91801,336.34798,320.21654)"
       fill="#636780"
       id="ellipse210" />
    <ellipse
       cx="425.96045"
       cy="409.63516"
       rx="3.98809"
       ry="2.32639"
       transform="rotate(-88.91801,326.38514,354.93041)"
       fill="#636780"
       id="ellipse212" />
    <ellipse
       cx="451.36151"
       cy="393.49487"
       rx="3.98809"
       ry="2.32639"
       transform="rotate(-88.91801,351.7862,338.79013)"
       fill="#636780"
       id="ellipse214" />
    <ellipse
       cx="444.11044"
       cy="416.62595"
       rx="3.98809"
       ry="2.32639"
       transform="rotate(-88.91801,344.53513,361.92121)"
       fill="#636780"
       id="ellipse216" />
    <path
       d="m 241.35131,319.55824 c 0,0 -20.41749,51.46883 -19.48183,54.72741 0,0 -8.31811,4.8289 -10.28827,3.54519 -1.97016,-1.28371 0.20735,-24.17821 0.20735,-24.17821 l 4.11941,-20.11552 4.46252,-11.88213 z"
       fill="#65617d"
       id="path218"
       transform="translate(-43,-153.22928)" />
    <path
       d="m 241.35131,319.55824 c 0,0 -20.41749,51.46883 -19.48183,54.72741 0,0 -8.31811,4.8289 -10.28827,3.54519 -1.97016,-1.28371 0.20735,-24.17821 0.20735,-24.17821 l 4.11941,-20.11552 4.46252,-11.88213 z"
       opacity="0.15"
       id="path220"
       transform="translate(-43,-153.22928)" />
    <ellipse
       cx="423.04556"
       cy="387.97409"
       rx="3.98809"
       ry="2.32639"
       transform="rotate(-88.91801,323.47025,333.26934)"
       fill="#636780"
       id="ellipse222" />
    <ellipse
       cx="435.49026"
       cy="397.84872"
       rx="9.4717197"
       ry="6.8129902"
       transform="rotate(-88.91801,335.91496,343.14398)"
       fill="#636780"
       id="ellipse224" />
    <path
       d="m 218.36145,388.4295 c -0.56669,30.00457 8.8859,57.50688 36.60484,55.0388 34.90371,-0.0887 38.0903,-23.61279 38.657,-53.61736 0.5667,-30.00457 -15.85951,-52.65258 -36.64249,-53.0451 -20.78298,-0.39252 -38.05267,21.6191 -38.61935,51.62366 z"
       fill="#636780"
       id="path226"
       transform="translate(-43,-153.22928)" />
    <path
       d="m 218.14279,388.47635 c 0.43873,-23.22992 10.89051,-41.66538 25.23208,-48.6255 18.17583,3.81334 31.80413,25.06076 31.28712,52.43526 -0.4644,24.589 -2.69316,44.822 -22.69094,51.37492 -25.57478,0.43597 -34.37557,-26.20568 -33.82826,-55.18468 z"
       opacity="0.1"
       id="path228"
       transform="translate(-43,-153.22928)" />
    <path
       d="m 203.898,375.442 c 0,0 4.90421,4.33073 7.702,1.392 0,0 7.74536,-53.70257 16.22326,-53.79175 l 29.16243,0.30148 c 0,0 3.46072,1.56116 4.83361,8.0689 l 17.84179,54.02128 103.3147,3.44706 8.20229,-16.38366 -85.4842,-1.3652 -0.009,-0.0401 c -0.43228,-1.66352 -13.74888,-52.93184 -23.22868,-59.45805 -0.005,-0.005 -0.01,-0.005 -0.0148,-0.0103 a 4.16644,4.16644 0 0 0 -1.042,-0.53322 c 0,0 -35.5478,-5.40808 -47.32192,-2.38955 0,0 -12.26313,2.51069 -15.32427,6.19238 a 0.3012,0.3012 0 0 0 -0.0255,0.0294 c -0.40664,0.41113 -5.13038,5.5323 -6.84467,20.53274 z"
       transform="translate(-43,-153.22928)"
       opacity="0.1"
       id="path230" />
    <path
       d="m 203.87919,376.43887 c 0,0 4.90422,4.33073 7.702,1.392 0,0 7.74537,-53.70257 16.22326,-53.79175 l 29.16243,0.30148 c 0,0 3.46072,1.56116 4.83362,8.06889 l 17.84178,54.02128 103.31472,3.44703 8.20228,-16.38365 -85.4842,-1.36521 -0.009,-0.0401 c -0.43228,-1.66352 -13.74888,-52.93183 -23.22867,-59.458 -0.005,-0.005 -0.01,-0.005 -0.0148,-0.0103 a 4.16683,4.16683 0 0 0 -1.042,-0.53322 c 0,0 -35.5478,-5.40808 -47.32192,-2.38955 0,0 -12.26313,2.5107 -15.32426,6.19239 a 0.298,0.298 0 0 0 -0.0255,0.0294 c -0.40664,0.41113 -5.13039,5.53229 -6.84468,20.53273 z"
       transform="translate(-43,-153.22928)"
       fill="#65617d"
       id="path232" />
    <path
       d="m 203.87919,376.43887 c 0,0 4.90422,4.33073 7.702,1.392 0,0 7.74537,-53.70257 16.22326,-53.79175 l 29.16243,0.30148 c 0,0 3.46072,1.56116 4.83362,8.06889 l 17.84178,54.02128 103.31472,3.44703 8.20228,-16.38365 -85.4842,-1.36521 -0.009,-0.0401 c -0.43228,-1.66352 -13.74888,-52.93183 -23.22867,-59.458 -0.005,-0.005 -0.01,-0.005 -0.0148,-0.0103 a 4.16683,4.16683 0 0 0 -1.042,-0.53322 c 0,0 -35.5478,-5.40808 -47.32192,-2.38955 0,0 -12.26313,2.5107 -15.32426,6.19239 a 0.298,0.298 0 0 0 -0.0255,0.0294 c -0.40664,0.41113 -5.13039,5.53229 -6.84468,20.53273 z"
       transform="translate(-43,-153.22928)"
       opacity="0.1"
       id="path234" />
    <path
       d="m 268.28967,318.82051 c 2.40269,4.78208 22.73348,63.50232 22.73348,63.50232 l 14.65194,-10.19389 -0.009,-0.0401 c -0.43228,-1.66352 -13.76281,-52.98693 -23.24345,-59.46831 -6.26042,0.94878 -15.76668,2.95311 -14.13275,6.19995 z"
       fill="#65617d"
       id="path236"
       transform="translate(-43,-153.22928)" />
    <path
       d="m 296.705,292.68205 10.9881,38.59977 61.08972,-0.59133 -0.60667,5.72245 c 0,0 -47.98037,6.07422 -68.23685,-3.78177 l -10.30321,-35.26282 -96.37114,-1.32152 18.44016,-3.97294 z"
       transform="translate(-43,-153.22928)"
       fill="#65617d"
       id="path238" />
    <path
       d="m 296.705,292.68205 10.9881,38.59977 61.08972,-0.59133 -0.60667,5.72245 c 0,0 -47.98037,6.07422 -68.23685,-3.78177 l -10.30321,-35.26282 -96.37114,-1.32152 18.44016,-3.97294 z"
       transform="translate(-43,-153.22928)"
       fill="#ffffff"
       opacity="0.1"
       id="path240" />
    <path
       d="m 581.82356,358.56382 c 0,0 32.41911,17.0661 7.87072,32.05908 l -6.50773,1.3729 c 0,0 24.08134,-16.6638 -15.31883,-33.69555 z"
       transform="translate(-43,-153.22928)"
       opacity="0.1"
       id="path242" />
    <path
       d="m 580.82671,358.545 c 0,0 32.41912,17.0661 7.87073,32.05908 l -6.50774,1.37292 c 0,0 24.08135,-16.6638 -15.31882,-33.69555 z"
       transform="translate(-43,-153.22928)"
       fill="#dce0ed"
       id="path244" />
    <ellipse
       cx="241.45808"
       cy="393.10382"
       rx="31.156969"
       ry="18.195669"
       transform="rotate(-88.91801,141.88279,338.39908)"
       fill="#636780"
       id="ellipse246" />
    <ellipse
       cx="242.05923"
       cy="393.78778"
       rx="25.25013"
       ry="13.22814"
       transform="rotate(-88.91801,142.48394,339.08302)"
       opacity="0.1"
       id="ellipse248" />
    <ellipse
       cx="242.07806"
       cy="392.79092"
       rx="25.25013"
       ry="13.22814"
       transform="rotate(-88.91801,142.50277,338.08618)"
       fill="#f0f0f4"
       id="ellipse250" />
    <ellipse
       cx="239.99837"
       cy="375.80701"
       rx="3.1157"
       ry="1.56282"
       transform="rotate(-88.91801,140.42307,321.10227)"
       fill="#636780"
       id="ellipse252" />
    <ellipse
       cx="233.23341"
       cy="402.94647"
       rx="3.1157"
       ry="1.56282"
       transform="rotate(-88.91801,133.65811,348.24172)"
       fill="#636780"
       id="ellipse254" />
    <ellipse
       cx="250.33167"
       cy="390.285"
       rx="3.1157"
       ry="1.56282"
       transform="rotate(-88.91801,150.75636,335.58026)"
       fill="#636780"
       id="ellipse256" />
    <ellipse
       cx="245.41245"
       cy="408.37024"
       rx="3.1157"
       ry="1.56282"
       transform="rotate(-88.91801,145.83715,353.66549)"
       fill="#636780"
       id="ellipse258" />
    <ellipse
       cx="231.31989"
       cy="386.03061"
       rx="3.1157"
       ry="1.56282"
       transform="rotate(-88.91801,131.7446,331.32588)"
       fill="#636780"
       id="ellipse260" />
    <ellipse
       cx="239.66006"
       cy="393.71909"
       rx="7.3997798"
       ry="4.5768299"
       transform="rotate(-88.91801,140.08477,339.01434)"
       fill="#636780"
       id="ellipse262" />
    <path
       d="m 508.23907,259.53147 c 0,0 -55.36257,0.94879 -127.50728,19.28094 z"
       transform="translate(-43,-153.22928)"
       opacity="0.1"
       id="path264" />
    <path
       d="m 246.10181,157.69294 c 0,0 2.99512,0.53741 1.358,4.47344 a 27.4,27.4 0 0 0 -1.916,5.97434 c 0,0 -3.0337,1.50544 -2.81594,-3.6595 0.21776,-5.16494 3.37394,-6.78828 3.37394,-6.78828 z"
       transform="translate(-43,-153.22928)"
       fill="#dce0ed"
       id="path266" />
  </g>
  <g
     inkscape:groupmode="layer"
     id="layer2"
     inkscape:label="Layer 1"
     style="display:inline;opacity:1">
    <path
       d="m 279.1024,185.99368 c 0,0 7.74102,22.03214 2.97731,25.4217 -4.76371,3.38956 16.07751,31.07096 16.07751,31.07096 l 25.00946,-6.77913 -13.69566,-23.16199 c 0,0 -1.78639,-23.162 -1.78639,-26.55156 0,-3.38956 -28.58223,2e-5 -28.58223,2e-5 z"
       fill="#a0616a"
       id="path76-3"
       style="display:inline;stroke-width:0.529539" />
    <path
       d="m 279.1024,185.99368 c 0,0 7.74102,22.03214 2.97731,25.4217 -4.76371,3.38956 16.07751,31.07096 16.07751,31.07096 l 25.00946,-6.77913 -13.69566,-23.16199 c 0,0 -1.78639,-23.162 -1.78639,-26.55156 0,-3.38956 -28.58223,2e-5 -28.58223,2e-5 z"
       opacity="0.1"
       id="path78-6"
       style="display:inline;stroke-width:0.529539" />
    <path
       d="m 266.10908,343.04331 c 0,0 -2.25971,28.24634 0,42.93443 2.2597,14.68809 5.64927,55.36282 5.64927,55.36282 0,0 0,76.83004 12.42838,77.95989 12.42839,1.12985 21.46722,2.25971 22.59707,-2.25971 1.12985,-4.51941 -5.64926,-6.77912 -2.25971,-9.03882 3.38956,-2.25971 4.51942,-10.16868 0,-19.20751 -4.51941,-9.03883 0,-100.55696 0,-100.55696 l 21.46722,57.62253 c 0,0 2.25971,47.45384 4.51942,54.23296 2.2597,6.77912 -2.25971,19.20751 5.64926,20.33737 7.90897,1.12985 16.94781,-5.64927 21.46722,-7.90898 4.51941,-2.25971 -6.77912,-2.25971 -4.51941,-3.38958 2.2597,-1.12987 9.03882,-4.51941 6.77912,-5.64927 -2.25971,-1.12986 -4.51942,-55.36282 -4.51942,-55.36282 0,0 -6.21419,-115.80996 -14.12317,-120.32936 -7.90897,-4.51941 -12.99329,3.26501 -12.99329,3.26501 z"
       fill="#2f2e41"
       id="path80"
       style="display:inline;stroke-width:0.529539" />
    <path
       d="m 286.44644,514.78104 v 9.03882 c 0,0 -10.16868,24.57031 0,24.57031 10.16868,0 18.07765,2.54618 18.07765,-0.84338 v -30.50605 z"
       fill="#2f2e41"
       id="path82"
       style="display:inline;stroke-width:0.529539" />
    <path
       d="m 353.1078,514.76499 v 9.03883 c 0,0 10.16868,24.5703 0,24.5703 -10.16868,0 -18.07766,2.54618 -18.07766,-0.84338 V 517.0247 Z"
       fill="#2f2e41"
       id="path84"
       style="display:inline;stroke-width:0.529539" />
    <circle
       cx="294.92035"
       cy="182.03918"
       r="20.337362"
       fill="#a0616a"
       id="circle86"
       style="display:inline;stroke-width:0.529539" />
    <path
       d="m 288.70615,219.88928 c 0,0 5.64927,16.9478 14.68809,13.55824 l 9.03883,-3.38958 15.81795,108.46595 c 0,0 -12.42839,18.07766 -30.50605,6.77912 -18.07765,-11.29853 -9.03882,-125.41373 -9.03882,-125.41373 z"
       fill="#6c63ff"
       id="path88-7"
       style="display:inline;fill:#ce323a;fill-opacity:1;stroke-width:0.529539" />
    <path
       d="m 304.52409,216.49974 5.08435,-10.73361 c 0,0 29.94111,14.12317 34.46053,18.64259 4.51941,4.51941 4.51941,11.29853 4.51941,11.29853 l -7.90897,28.24634 c 0,0 2.2597,62.14192 2.2597,64.40165 0,2.25972 7.90898,14.68809 2.25971,10.16867 -5.64927,-4.51941 -6.77912,-9.03882 -11.29854,-2.2597 -4.51941,6.77912 -14.68809,14.6881 -14.68809,14.6881 z"
       fill="#3f3d56"
       id="path90-5"
       style="display:inline;stroke-width:0.529539" />
    <path
       d="m 344.06897,297.84917 -3.38958,31.6359 c 0,0 -20.33736,18.07765 -15.81795,19.20751 4.51941,1.12985 6.77912,-3.38958 6.77912,-3.38958 0,0 7.90898,7.90898 12.42839,3.38958 4.51942,-4.5194 15.81796,-47.45385 15.81796,-47.45385 z"
       fill="#a0616a"
       id="path92"
       style="display:inline;stroke-width:0.529539" />
    <path
       d="m 295.35359,153.2967 c -4.50856,-0.16117 -9.33339,-0.2409 -13.13472,2.1887 a 19.228953,19.228953 0 0 0 -4.53937,4.44364 c -3.70228,4.68031 -6.90123,10.5692 -5.52602,16.37619 l 1.59727,-0.62295 a 10.45885,10.45885 0 0 1 -1.00885,4.48128 c 0.22492,-0.65403 0.97817,0.40325 0.77651,1.06482 l -1.75949,5.77233 c 2.89238,-1.06034 6.49035,1.08656 6.9307,4.13554 0.20109,-6.70462 0.89662,-14.39269 6.33541,-18.31851 2.74275,-1.97977 6.21395,-2.58415 9.55374,-3.12084 3.08103,-0.49511 6.31094,-0.96725 9.26204,0.0471 2.9511,1.01431 5.46416,4.03244 4.79514,7.08043 1.36072,-0.46874 2.88258,0.47958 3.55504,1.75201 0.67247,1.27243 0.70779,2.77346 0.72803,4.21251 1.45047,1.0251 3.10115,-1.01046 3.69228,-2.68535 1.38757,-3.93148 2.62091,-8.11645 1.87342,-12.21805 -0.74748,-4.10161 -4.08976,-8.02132 -8.25889,-8.03523 a 2.8948625,2.8948625 0 0 0 0.75288,-2.03806 l -3.43633,-0.29034 a 3.7980124,3.7980124 0 0 0 2.26947,-1.19652 c -1.37966,1.51813 -12.22719,-2.94893 -14.45826,-3.02868 z"
       fill="#2f2e41"
       id="path94-3"
       style="display:inline;stroke-width:0.529539" />
    <path
       d="m 294.35541,213.11016 c 0,0 -9.19772,-9.0132 -12.50784,-8.46109 -3.31011,0.55211 -7.82952,8.46109 -7.82952,8.46109 0,0 -27.11648,9.03883 -25.98663,18.07766 1.12985,9.03882 13.55823,53.10311 13.55823,53.10311 0,0 10.16869,53.10311 1.12986,58.75238 -9.03883,5.64926 42.93443,20.33736 44.06428,13.55824 1.12985,-6.77912 3.38958,-74.57033 0,-84.73901 -3.38958,-10.16868 -12.42838,-58.75238 -12.42838,-58.75238 z"
       fill="#3f3d56"
       id="path96"
       style="display:inline;stroke-width:0.529539" />
    <path
       d="m 333.90028,231.18782 h 13.97065 c 0,0 9.75628,42.93443 10.88613,47.45385 1.12985,4.51942 3.38958,25.98662 2.25971,25.98662 -1.12987,0 -23.72692,-4.51941 -23.72692,-1.12985 z"
       fill="#3f3d56"
       id="path98"
       style="display:inline;stroke-width:0.529539" />
    <path
       d="M 333.42744,337.50749 H 279.944 c -5.21918,-24.0093 -5.65525,-47.20654 0,-69.3696 h 53.48344 c -8.63106,21.76442 -9.17043,44.80274 0,69.3696 z"
       fill="#f2f2f2"
       id="path100"
       style="display:inline;stroke-width:0.529539" />
    <path
       d="m 258.2001,308.01784 15.81795,6.77916 c 0,0 30.50604,4.51941 30.50604,-7.90898 0,-12.42839 -30.50604,-5.64926 -30.50604,-5.64926 l -10.16936,-3.25145 z"
       fill="#a0616a"
       id="path102-5"
       style="display:inline;stroke-width:0.529539" />
    <path
       d="m 263.59626,225.79794 -15.57311,3.29561 -11.67982,58.2219 c 0,0 -3.89329,15.37936 2.59552,16.47787 6.48881,1.09851 24.65741,9.88678 24.65741,9.88678 0,0 2.5955,-16.4779 7.78656,-16.4779 l -12.97759,-8.78824 7.78654,-38.4484 z"
       fill="#3f3d56"
       id="path104-6"
       style="display:inline;stroke-width:0.559601" />
    <g
       id="g1121">
      <path
         d="m 320.92544,243.17653 c -0.15684,0.0619 -0.22701,0.23527 -0.32607,0.79248 -0.0578,0.34672 -0.12383,0.58199 -0.17336,0.64803 -0.0413,0.0578 -0.19812,0.15684 -0.34258,0.21463 -0.14447,0.0578 -0.35084,0.14859 -0.45816,0.19812 -0.10731,0.0454 -0.23939,0.0867 -0.29718,0.0867 -0.0619,0 -0.30956,-0.14034 -0.61913,-0.35084 -0.63564,-0.43339 -0.72232,-0.44578 -0.99886,-0.16923 -0.27655,0.27654 -0.26004,0.39211 0.12795,0.94933 0.47054,0.66866 0.45816,0.615 0.25178,1.08554 -0.0784,0.17748 -0.15272,0.37148 -0.16923,0.42926 -0.0578,0.2394 -0.20637,0.31782 -0.8255,0.43339 -0.61088,0.11145 -0.74296,0.1651 -0.80487,0.33021 -0.0578,0.15271 -0.0495,0.41687 0.0206,0.54896 0.0949,0.18573 0.26416,0.23114 0.84614,0.22701 0.54896,0 0.74708,-0.0495 1.54782,-0.37561 l 0.28893,-0.11557 0.0289,-0.26003 c 0.19813,-1.79548 2.38159,-2.58383 3.66525,-1.32906 0.12795,0.12382 0.26003,0.26829 0.29305,0.31782 l 0.0578,0.0908 0.37148,-0.0784 c 0.20637,-0.0413 0.47879,-0.0867 0.61087,-0.10319 0.12795,-0.0165 0.24353,-0.0454 0.25591,-0.0619 0.0124,-0.0165 -0.0206,-0.1197 -0.066,-0.22702 -0.0537,-0.12382 -0.0743,-0.23114 -0.0578,-0.30131 0.0124,-0.0578 0.15272,-0.28892 0.30957,-0.51181 0.46641,-0.6604 0.48704,-0.74708 0.24765,-1.01124 -0.14447,-0.16098 -0.25178,-0.21876 -0.39212,-0.21876 -0.13621,0 -0.20225,0.033 -0.69342,0.37973 -0.22702,0.15685 -0.46229,0.29718 -0.53245,0.30956 -0.0867,0.0165 -0.194,-0.008 -0.35497,-0.0825 -0.13208,-0.0619 -0.34671,-0.15271 -0.4788,-0.20224 -0.1362,-0.0537 -0.27654,-0.14034 -0.31781,-0.19813 -0.0454,-0.0619 -0.11557,-0.33845 -0.17749,-0.68104 -0.0949,-0.52832 -0.11557,-0.58611 -0.23114,-0.69342 -0.0991,-0.0908 -0.1651,-0.11145 -0.32195,-0.10732 -0.10731,0 -0.23527,0.0165 -0.2848,0.0371 z"
         id="path74-7"
         style="fill:#ffffff;stroke-width:0.00412752" />
      <path
         d="m 327.75238,246.2763 c -0.94108,0.0908 -2.64575,0.4788 -3.78495,0.86266 -1.6345,0.55309 -2.97595,1.10617 -3.76843,1.55195 -1.44876,0.82137 -1.84088,1.14745 -2.43937,2.03487 -0.29718,0.44164 -0.30957,0.59436 -0.0743,0.83376 0.16923,0.1651 0.32195,0.22701 0.47467,0.18574 0.0495,-0.0124 0.30544,-0.17336 0.56547,-0.3591 0.43752,-0.30544 0.48705,-0.3302 0.63977,-0.31369 0.26003,0.0289 0.99886,0.35497 1.07316,0.47054 0.0371,0.0537 0.10318,0.31782 0.14859,0.58198 0.14033,0.82138 0.17335,0.87504 0.60262,0.87504 0.39624,0 0.44164,-0.0578 0.5696,-0.73883 0.0578,-0.30131 0.10318,-0.56547 0.10318,-0.58611 0,-0.0949 0.23114,-0.2848 0.42514,-0.35084 0.1197,-0.0371 0.30131,-0.11144 0.40862,-0.1651 0.32608,-0.1651 0.40863,-0.14447 0.98648,0.25591 0.47054,0.32607 0.5242,0.35084 0.67279,0.33433 0.26829,-0.0371 0.56547,-0.4045 0.4953,-0.61913 -0.0165,-0.0495 -0.18161,-0.31782 -0.37147,-0.59437 -0.18987,-0.28067 -0.34672,-0.54483 -0.34672,-0.59023 0,-0.0495 0.0371,-0.15272 0.0784,-0.2394 0.0413,-0.0825 0.13621,-0.30544 0.2105,-0.4953 0.16097,-0.41689 0.16923,-0.42101 0.94933,-0.56135 0.68104,-0.12383 0.74296,-0.16923 0.74296,-0.56547 0,-0.35084 -0.11145,-0.46228 -0.53658,-0.53245 -0.45816,-0.0784 -0.46641,-0.0949 -0.0991,-0.23527 1.07728,-0.41275 2.5343,-0.81312 3.4341,-0.9452 0.27655,-0.0372 0.50356,-0.0867 0.50356,-0.10732 0,-0.0413 -1.18047,-0.033 -1.66339,0.0124 z m -4.46599,2.38159 c -0.1651,0.57372 -0.59436,1.10617 -1.10205,1.36208 -0.38799,0.19812 -0.86678,0.2848 -1.2589,0.22701 -0.16923,-0.0248 -0.31782,-0.0578 -0.33433,-0.0743 -0.0289,-0.0289 0.008,-0.0619 0.53658,-0.49943 0.36735,-0.30544 1.03188,-0.75121 1.56021,-1.04839 0.21463,-0.1197 0.4499,-0.25178 0.51594,-0.29306 0.1197,-0.0743 0.12383,-0.0743 0.13621,0.004 0.008,0.0454 -0.0165,0.18986 -0.0537,0.32194 z"
         id="path76-5"
         style="fill:#d40000;stroke-width:0.00412752" />
      <text
         xml:space="preserve"
         transform="matrix(0.03095647,0,0,0.03095647,305.58298,230.46833)"
         id="text6219"
         style="font-style:normal;font-variant:normal;font-weight:bold;font-stretch:normal;font-size:106.667px;line-height:1.25;font-family:Ubuntu;-inkscape-font-specification:'Ubuntu Bold';letter-spacing:5px;white-space:pre;shape-inside:url(#rect6221);fill:#000000;fill-opacity:1;stroke:none"><tspan
           x="200.16797"
           y="842.98763"
           id="tspan1280"><tspan
   style="fill:#d40000"
   id="tspan1276">ACH</tspan> <tspan
   style="font-weight:500;-inkscape-font-specification:'Ubuntu Medium';fill:#ffffff"
   id="tspan1278">AUTO</tspan></tspan></text>
    </g>
  </g>
  <ellipse
     cx="663.90742"
     cy="451.63248"
     rx="18.67648"
     ry="3.15725"
     fill="#6c63ff"
     opacity="0.1"
     id="ellipse278" />
  <path
     d="M694.36474,590.19087s10.65346-.32812,13.86414-2.6144,16.3877-5.01624,17.18419-1.34953,16.01017,18.23649,3.98247,18.33351-27.947-1.8735-31.15153-3.82549S694.36474,590.19087,694.36474,590.19087Z"
     transform="translate(-43 -153.22928)"
     fill="#a8a8a8"
     id="path280" />
  <path
     d="M729.61019,603.28405c-12.0277.097-27.947-1.87348-31.15153-3.82548-2.4404-1.48654-3.41288-6.82063-3.73826-9.28157-.22534.00969-.35565.01386-.35565.01386s.67476,8.59209,3.87927,10.54409,19.12382,3.92252,31.15152,3.82548c3.47192-.028,4.67119-1.26326,4.60534-3.09278C733.51855,602.573,732.19438,603.26322,729.61019,603.28405Z"
     transform="translate(-43 -153.22928)"
     opacity="0.2"
     id="path282" />
  <ellipse
     cx="772.23501"
     cy="414.84369"
     rx="14.37168"
     ry="2.42952"
     fill="#6c63ff"
     opacity="0.1"
     id="ellipse284" />
  <path
     d="M805.58333,556.78361s8.19791-.25249,10.66856-2.0118,12.61045-3.86,13.22336-1.03848,12.31994,14.03312,3.06454,14.10777-21.50544-1.44167-23.97133-2.94374S805.58333,556.78361,805.58333,556.78361Z"
     transform="translate(-43 -153.22928)"
     fill="#a8a8a8"
     id="path286" />
  <path
     d="M832.705,566.85891c-9.25541.07467-21.50543-1.44166-23.97133-2.94374-1.87791-1.14391-2.62623-5.24852-2.87662-7.14224-.1734.00746-.27367.01067-.27367.01067s.51923,6.61168,2.98512,8.11375,14.71593,3.01841,23.97133,2.94374c2.67167-.02155,3.59451-.97209,3.54384-2.37992C835.71247,566.31175,834.69352,566.84287,832.705,566.85891Z"
     transform="translate(-43 -153.22928)"
     opacity="0.2"
     id="path288" />
  <ellipse
     cx="707.02732"
     cy="568.43844"
     rx="34.30916"
     ry="5.79994"
     fill="#6c63ff"
     opacity="0.1"
     id="ellipse290" />
  <path
     d="M726.98611,694.71692s19.57067-.60276,25.46877-4.80272,30.10463-9.215,31.5678-2.47913,29.41109,33.5009,7.3159,33.67913-51.3394-3.44167-57.22615-7.02752S726.98611,694.71692,726.98611,694.71692Z"
     transform="translate(-43 -153.22928)"
     fill="#a8a8a8"
     id="path292" />
  <path
     d="M791.73289,718.76943c-22.09519.17827-51.33938-3.44164-57.22615-7.02751-4.48308-2.73082-6.26954-12.52967-6.86728-17.05048-.41395.0178-.65334.02546-.65334.02546s1.23956,15.78389,7.12632,19.36976,35.13095,7.20578,57.22615,7.02751c6.378-.05144,8.58108-2.32064,8.46011-5.68152C798.91265,717.4632,796.48013,718.73116,791.73289,718.76943Z"
     transform="translate(-43 -153.22928)"
     opacity="0.2"
     id="path294" />
  <path
     d="M1112.28952,517.50307a89.33035,89.33035,0,0,1-178.33139,7.66639c-.12993-1.45095-.22735-2.902-.27071-4.37461v-.0758q-.06493-1.608-.065-3.216a89.33354,89.33354,0,0,1,178.66707,0Z"
     transform="translate(-43 -153.22928)"
     fill="#65617d"
     id="path296" />
  <path
     d="M1112.28952,517.50307a89.33035,89.33035,0,0,1-178.33139,7.66639c-.12993-1.45095-.22735-2.902-.27071-4.37461v-.0758q-.06493-1.608-.065-3.216a89.33354,89.33354,0,0,1,178.66707,0Z"
     transform="translate(-43 -153.22928)"
     opacity="0.2"
     id="path298" />
  <circle
     cx="979.95349"
     cy="364.27379"
     r="48.72738"
     fill="#dce0ed"
     id="circle300" />
  <circle
     cx="979.95349"
     cy="364.27379"
     r="29.23643"
     fill="#65617d"
     id="circle302" />
  <path
     d="M635.37776,517.50307a89.33035,89.33035,0,0,1-178.3314,7.66639c-.12993-1.45095-.22735-2.902-.2707-4.37461v-.0758q-.06493-1.608-.065-3.216a89.33354,89.33354,0,0,1,178.66707,0Z"
     transform="translate(-43 -153.22928)"
     fill="#65617d"
     id="path304" />
  <path
     d="M635.37776,517.50307a89.33035,89.33035,0,0,1-178.3314,7.66639c-.12993-1.45095-.22735-2.902-.2707-4.37461v-.0758q-.06493-1.608-.065-3.216a89.33354,89.33354,0,0,1,178.66707,0Z"
     transform="translate(-43 -153.22928)"
     opacity="0.2"
     id="path306" />
  <circle
     cx="503.04172"
     cy="364.27379"
     r="48.72738"
     fill="#dce0ed"
     id="circle308" />
  <ellipse
     cx="503.04172"
     cy="364.2738"
     fill="#65617d"
     id="circle310"
     rx="29.236"
     ry="29.236429" />
  <path
     d="M1140.15257,500.76362l-29.807-1.296-27.21508-50.54228-95.90073-7.77574-46.65441,60.90993,2.59191,16.84742-6.4798,15.55148-304.54961,2.59191v-7.77574H629.546l-2.59192-11.6636h23.32721l-16.84743-18.14338-59.614-50.54228s-102.38051,2.59191-103.67647,0,5.8318-29.159,5.8318-29.159l44.0625-12.95956,150.33089-11.6636c33.04687-52.48622,62.85386-77.10938,62.85386-77.10938h386.19485l18.14338,93.30883v.22021Z"
     transform="translate(-43 -153.22928)"
     fill="#444053"
     id="path312" />
  <path
     d="M925.0239,507.2434s38.87867-72.57353,68.68566-72.57353h72.57353s18.14338,0,25.91912,14.25552l29.807,58.318H1098.682s-19.43934-54.43015-41.47059-55.7261-59.614,0-59.614,0-12.95956,0-20.7353,15.55147-34.06581,49.427-34.06581,49.427S914.65625,525.38678,925.0239,507.2434Z"
     transform="translate(-43 -153.22928)"
     fill="#33323d"
     id="path314" />
  <polygon
     points="1114 342.351 1065.252 342.351 1064.754 381.229 1114 369.566 1114 342.351"
     fill="#33323d"
     id="polygon316" />
  <path
     d="M452,472.25259s2.59191-19.43934,20.73529-27.21507l119.228-6.47978s19.43933,1.296,29.807,25.91912l33.69485,50.54228v7.77573H617.88235s-18.14338-68.68566-69.98161-66.09375H485.69485s-14.25551,0-19.43934,23.32721Z"
     transform="translate(-43 -153.22928)"
     fill="#33323d"
     id="path318" />
  <path
     d="M731.92647,325.80956v0h397.85846v0a14.25551,14.25551,0,0,0-14.2555-14.2555H746.182A14.25551,14.25551,0,0,0,731.92647,325.80956Z"
     transform="translate(-43 -153.22928)"
     fill="#33323d"
     id="path320" />
  <path
     d="M817.18914,402.271H707.0934a7.44346,7.44346,0,0,1-6.80191-10.46653l17.42127-39.19784a34.21209,34.21209,0,0,1,31.26341-20.31725h66.89151a9.36761,9.36761,0,0,1,9.36761,9.36762v52.56784A8.04615,8.04615,0,0,1,817.18914,402.271Z"
     transform="translate(-43 -153.22928)"
     fill="#6c63ff"
     opacity="0.3"
     id="path322" />
  <rect
     x="810.74632"
     y="179.06008"
     width="107.56434"
     height="69.98162"
     rx="5.53937"
     fill="#6c63ff"
     opacity="0.3"
     id="rect324" />
  <polygon
     points="1094.561 258.113 1094.561 258.334 927.382 260.705 923.028 164.805 1076.417 164.805 1094.561 258.113"
     fill="#33323d"
     id="polygon326" />
  <rect
     x="941.63787"
     y="179.06008"
     width="123.11581"
     height="69.98162"
     rx="5.53937"
     fill="#6c63ff"
     opacity="0.3"
     id="rect328" />
  <rect
     x="748.54044"
     y="273.66486"
     width="41.47059"
     height="7.77574"
     rx="1.75984"
     fill="#33323d"
     id="rect330" />
  <rect
     x="867.76838"
     y="273.66486"
     width="41.47059"
     height="7.77574"
     rx="1.75984"
     fill="#33323d"
     id="rect332" />
</svg>
